<?xml version="1.0" encoding="utf-8"?>
<!-- Generator: Adobe Illustrator 23.0.0, SVG Export Plug-In . SVG Version: 6.00 Build 0)  -->
<svg version="1.1" id="Layer_1" xmlns="http://www.w3.org/2000/svg" xmlns:xlink="http://www.w3.org/1999/xlink" x="0px" y="0px"
	 viewBox="0 0 30 30" style="enable-background:new 0 0 30 30;" xml:space="preserve">
<style type="text/css">
	.st0{fill:#FFFFFF;}
</style>
<path class="st0" d="M22.9,0H7.1C3.2,0,0,3.2,0,7.1v15.7C0,26.8,3.2,30,7.1,30h15.7c3.9,0,7.1-3.2,7.1-7.1V7.1C30,3.2,26.8,0,22.9,0
	z M14.9,7.8c1.5,2.4,2.9,4.8,4.4,7.2c-0.1,0.1-0.1,0.1-0.2,0.1c-1.4,0.8-2.7,1.6-4,2.4c-0.1,0.1-0.3,0.1-0.4,0
	c-1.3-0.8-2.6-1.5-3.9-2.3c0-0.1-0.1-0.1-0.2-0.2C12,12.6,13.5,10.3,14.9,7.8z M14.9,22.2c-1.4-2.2-2.9-4.3-4.4-6.4
	c0.1,0.1,0.2,0.1,0.4,0.2c1.3,0.8,2.5,1.5,3.8,2.3c0.2,0.1,0.4,0.1,0.6,0c1.4-0.8,2.7-1.6,4.1-2.4c0.1-0.1,0.1-0.1,0.2-0.1
	C18,18,16.5,20.1,14.9,22.2z"/>
</svg>
