<?xml version="1.0" encoding="utf-8"?>
<!-- Generator: Adobe Illustrator 23.0.0, SVG Export Plug-In . SVG Version: 6.00 Build 0)  -->
<svg version="1.1" id="Layer_1" xmlns="http://www.w3.org/2000/svg" xmlns:xlink="http://www.w3.org/1999/xlink" x="0px" y="0px"
	 viewBox="0 0 42 42" style="enable-background:new 0 0 42 42;" xml:space="preserve">
<style type="text/css">
	.st0{fill:#FFFFFF;}
</style>
<path class="st0" d="M32,0H10C4.5,0,0,4.5,0,10v22c0,5.5,4.5,10,10,10h22c5.5,0,10-4.5,10-10V10C42,4.5,37.5,0,32,0z M14.8,21
	c2-3.4,4.1-6.7,6.1-10.1C23,14.4,25,17.7,27,21c-0.1,0.1-0.2,0.1-0.3,0.2c-1.9,1.1-3.8,2.2-5.6,3.3c-0.2,0.1-0.4,0.1-0.6,0
	C18.7,23.4,16.6,22.2,14.8,21L14.8,21z M20.9,31c-2-3.1-4.1-6-6.2-8.9c0.2,0.1,0.3,0.2,0.5,0.3c1.8,1.1,3.5,2.1,5.3,3.2
	c0.3,0.2,0.5,0.2,0.8,0c1.9-1.1,3.8-2.2,5.7-3.3l0.2-0.1C25.1,25.1,23.1,28.1,20.9,31z"/>
</svg>
